<svg xmlns="http://www.w3.org/2000/svg"  viewBox="0 0 1450 1450">
   <style>
    path { fill: #1a377f; }

    @media (prefers-color-scheme: dark) {
      path {
        fill: #fff;
      }
    }
  </style>
  <path d="M1450 868c-1 1-30 34-65 62-160 127-385 177-564 19-127-113-195-291-310-385-17-14-104-94-267-71-78 12-141 59-141 63 1 3 85 54 165 141 5 5 11 9 5 16-26 32-67 77-116 167-2 6-7 13 2 9 102-34 213-65 344 91 88 106 150 232 289 211 76-11 136-96 140-96 1 0 34 16 33 20-3 11-52 85-118 121a283 283 0 0 1-351-61C358 1031 317 867 87 962c-25 10-59 31-60 28 0-2 16-52 37-95 68-142 118-173 109-182-53-53-141-111-154-119-12-8-20-11-15-17 13-16 120-128 268-163 309-72 450 188 525 300 91 133 188 271 405 243 68-8 149-58 145-65-3-4-75-44-162-137-9-10-16-11-7-21 19-22 66-76 114-162 21-39-21 17-141 15-201-3-262-277-411-323-142-44-213 94-224 90 0 0-32-15-31-21 1-4 20-34 41-57a281 281 0 0 1 256-95c179 20 262 248 371 311 125 71 269-44 269-31 0 2-26 94-92 194-40 61-43 59-54 75-3 6-2 9 59 58 64 51 102 69 113 78z"/></svg>
