<svg xmlns="http://www.w3.org/2000/svg" viewBox="-15 -30 330 405">
  <g fill="#fff">
    <path d="M243 55c5 5 5 14 0 19l-39 38a54 54 0 0 0-3 74q3 3 6 0l52-52c21-21 21-55 0-76l-16-16-11-11-8-8a54 54 0 0 0-74-3v6l16 16c17 17 41 20 61 11q10-4 16 2"/>
    <path d="M55 57c5-5 14-5 19 0l38 39c21 20 53 21 74 2q3-2 0-5l-52-52a54 54 0 0 0-76 0L42 57 31 68l-8 8a54 54 0 0 0-3 74h6l16-16c17-17 20-41 11-61q-4-9 2-16"/>
    <path d="M57 245c-5-5-5-14 0-19l39-38c20-21 21-53 2-74q-2-2-5 0l-52 52a54 54 0 0 0 0 76l16 16 11 11 8 8c21 20 53 21 74 3v-6l-16-16a54 54 0 0 0-61-11q-9 4-16-2"/>
    <path d="M280 150h-6l-16 16a54 54 0 0 0-11 61q3 10-2 16-10 7-19 0l-39-39a54 54 0 0 0-73-2q-3 3 0 5l52 52c21 21 55 21 76 0l16-16 11-11 8-8c20-20 21-52 3-74"/>
  </g>
</svg>
